<?xml version="1.0"?><svg fill="#000000" xmlns="http://www.w3.org/2000/svg"  viewBox="0 0 50 50" width="50px" height="50px">    <path d="M 9 4 C 6.24 4 4 6.24 4 9 L 4 41 C 4 43.76 6.24 46 9 46 L 41 46 C 43.76 46 46 43.76 46 41 L 46 9 C 46 6.24 43.76 4 41 4 L 9 4 z M 14.939453 16 L 23.470703 16 C 26.070703 16 28.169922 17.890469 28.169922 20.230469 C 28.169922 22.130469 26.759844 23.72 24.839844 24.25 C 27.199844 24.65 29 26.659844 29 29.089844 C 29 31.799844 26.750469 34 23.980469 34 L 14.939453 34 L 14.939453 16 z M 30.939453 16 L 35 16 L 35 28 L 30.939453 28 L 30.939453 16 z M 19.210938 19.949219 L 19.210938 23.599609 L 21.619141 23.599609 C 22.659141 23.599609 23.509766 22.779766 23.509766 21.759766 C 23.509766 20.819766 22.770312 20.049219 21.820312 19.949219 L 19.210938 19.949219 z M 19.210938 26.800781 L 19.210938 30.810547 L 22.210938 30.810547 C 23.350938 30.810547 24.269531 29.910547 24.269531 28.810547 C 24.269531 27.700547 23.350938 26.800781 22.210938 26.800781 L 19.210938 26.800781 z M 32.970703 30 C 34.090703 30 35 30.9 35 32 C 35 33.1 34.090703 34 32.970703 34 C 31.850703 34 30.939453 33.1 30.939453 32 C 30.939453 30.9 31.850703 30 32.970703 30 z"/></svg>